<?xml version="1.0" encoding="UTF-8"?>
<svg width="268px" height="268px" viewBox="0 0 268 268" version="1.1" xmlns="http://www.w3.org/2000/svg" xmlns:xlink="http://www.w3.org/1999/xlink">
    <title>coca cola</title>
    <defs>
        <polygon id="path-1" points="0 0 267 0 267 267 0 267"></polygon>
    </defs>
    <g id="Page-1" stroke="none" stroke-width="1" fill="none" fill-rule="evenodd">
        <g id="Logos" transform="translate(-1572.000000, -197.000000)">
            <g id="coca-cola" transform="translate(1572.315636, 197.000000)">
                <g id="Group-8" transform="translate(0.684364, -0.000000)">
                    <g id="Group-3">
                        <mask id="mask-2" fill="white">
                            <use xlink:href="#path-1"></use>
                        </mask>
                        <g id="Clip-2"></g>
                        <path d="M267.000525,133.499825 C267.000525,207.230512 207.230219,267.0007 133.499387,267.0007 C59.7703061,267.0007 0,207.230512 0,133.499825 C0,59.7691382 59.7703061,-0.00105031962 133.499387,-0.00105031962 C207.230219,-0.00105031962 267.000525,59.7691382 267.000525,133.499825" id="Fill-1" fill="#EC1C24" mask="url(#mask-2)"></path>
                    </g>
                    <polygon id="Fill-4" fill="#FFFFFF" points="141.123672 115.922026 135.481694 115.922026 132.29922 121.080846 137.937697 121.080846"></polygon>
                    <path d="M174.888889,105.524212 C174.888889,105.524212 171.36506,106.928139 167.270556,111.442763 C163.160297,115.976643 160.791821,121.044435 162.558112,122.388844 C163.232069,122.90175 164.795297,122.989277 167.638168,120.433499 C169.856097,118.441393 172.110788,115.833099 173.640757,112.100963 C175.475318,107.624851 174.890639,105.576728 174.888889,105.524212 M197.320259,113.639681 C192.765364,111.307972 189.442846,108.456354 185.975034,106.679563 C182.668271,104.983297 180.532617,104.279583 177.866551,104.634941 C177.423665,104.694459 176.761962,104.909775 176.761962,104.909775 C176.761962,104.909775 178.143136,109.604703 172.674461,117.499606 C167.134014,125.49954 162.104723,125.457528 160.676286,123.248355 C159.177827,120.9289 161.105167,116.19721 164.334906,111.99068 C167.713441,107.58984 173.65126,103.931227 173.65126,103.931227 C173.65126,103.931227 171.755429,102.775875 167.104255,105.413928 C162.573867,107.98196 154.750721,114.093069 147.522757,124.403707 C140.294794,134.712594 138.848851,140.38607 137.805531,144.851679 C136.760461,149.317288 137.716254,154.094492 142.672022,154.094492 C147.626039,154.094492 153.381802,146.540943 155.002798,143.911643 C158.020723,139.020655 159.990076,131.519622 155.879817,132.554187 C153.852696,133.063592 152.214194,135.311276 151.181378,137.467932 C150.118802,139.685857 149.693422,141.807503 149.693422,141.807503 C149.693422,141.807503 147.981398,142.418439 145.682944,144.140963 C143.382739,145.863487 141.88253,147.507238 141.88253,147.507238 C141.88253,147.507238 141.893033,143.941402 144.737654,138.164644 C147.582276,132.386136 152.802374,129.742832 155.75903,129.497757 C158.425096,129.27719 161.891158,131.542379 158.957259,139.897672 C156.025111,148.251214 147.359957,158.383297 138.250167,158.516338 C129.845843,158.638875 124.336906,147.90986 136.028737,129.187913 C148.959947,108.479111 164.156352,102.124677 169.089363,101.413961 C174.022373,100.703245 175.622363,102.880907 175.622363,102.880907 C175.622363,102.880907 179.755379,100.969326 184.998235,101.324684 C191.020079,101.732558 195.683508,105.993355 201.824388,108.983264 C200.217396,110.539488 198.692679,112.137724 197.320259,113.639681 M224.371294,106.656806 C220.201517,109.340373 214.422997,111.768362 208.875548,111.232699 C207.473369,112.690893 205.967907,114.367903 204.458945,116.204212 C214.086894,118.10354 222.508724,112.139475 226.991847,107.057678 C229.789203,103.887464 231.168626,101.058603 231.168626,101.058603 C231.168626,101.058603 228.499058,104.001248 224.371294,106.656806 M211.573124,133.77956 C211.693911,133.567746 211.749928,133.380439 211.749928,133.380439 C211.749928,133.380439 211.639645,132.569942 210.869409,132.534931 C209.952128,132.494669 208.698744,132.667972 205.425241,136.298577 C202.163992,139.913427 200.180635,143.052132 198.463359,146.192587 C196.585034,149.625382 195.830553,152.179409 196.908883,152.835859 C197.213476,153.019665 197.672117,153.042422 198.04148,152.953145 C198.776705,152.77459 199.599457,152.095384 200.863344,150.63719 C201.453275,149.954482 202.107975,148.984687 202.892215,147.90986 C205.047125,144.956711 210.491293,135.65263 211.573124,133.77956 M177.514693,137.746267 C178.062611,136.314331 178.755823,133.504726 177.304629,132.405392 C175.750153,131.229034 171.783438,133.984372 171.762431,136.799229 C171.741425,139.685857 174.556287,140.986503 175.237246,141.170309 C175.622363,141.275341 175.755404,141.259586 175.940961,140.949742 C176.061748,140.74668 176.968526,139.179953 177.514693,137.746267 M174.521276,142.994364 C174.416244,142.957603 173.131351,142.369424 171.795691,141.256085 C170.463533,140.147998 169.789577,138.870109 169.738811,138.77383 C169.686295,138.6758 169.626777,138.751073 169.567259,138.831597 C169.507741,138.913872 169.267917,139.123936 167.149769,142.234633 C165.03162,145.34533 161.791377,151.759281 164.735779,152.848113 C166.619356,153.544825 169.751065,150.250322 171.46309,148.062156 C173.050826,146.029788 174.535281,143.446002 174.617556,143.260445 C174.69808,143.076639 174.624558,143.031125 174.521276,142.994364 M207.86899,150.392115 C207.068995,151.673505 206.165718,154.117249 208.802026,152.590784 C212.012509,150.733469 216.58666,143.792607 216.58666,143.792607 L218.652292,143.792607 C218.652292,143.792607 215.926708,148.10592 212.373119,152.042868 C209.117122,155.650716 205.148657,158.927713 202.3513,158.605615 C199.08655,158.2275 200.107112,153.938695 200.107112,153.938695 C200.107112,153.938695 195.419177,158.91721 192.19819,158.560101 C187.834104,158.078704 189.16101,152.680062 189.16101,152.680062 C189.16101,152.680062 184.227999,158.75441 180.865219,158.560101 C175.589103,158.259009 176.910758,151.82055 178.377707,147.31818 C179.163698,144.904195 179.890171,143.001366 179.890171,143.001366 C179.890171,143.001366 179.36501,143.139658 178.244667,143.304208 C177.658237,143.389985 176.585158,143.446002 176.585158,143.446002 C176.585158,143.446002 174.393487,147.326933 172.63945,149.658642 C170.883662,151.992102 163.415875,160.018295 159.018528,158.413056 C154.959035,156.932106 156.294694,150.707211 158.661419,145.761956 C162.111726,138.555013 171.814947,128.195361 177.414912,129.550273 C183.21794,130.955951 177.551454,141.553676 177.551454,141.553676 C177.551454,141.553676 177.556706,141.592188 177.614474,141.614944 C177.730009,141.660458 178.031101,141.690217 178.733066,141.555426 C179.848158,141.343612 180.856467,140.921733 180.856467,140.921733 C180.856467,140.921733 186.687502,128.699514 193.131226,120.69958 C199.573199,112.701396 212.427386,98.9299551 217.482934,102.257718 C218.718813,103.073466 218.15514,105.897075 216.495632,109.321117 C215.762157,109.553938 214.998923,109.75875 214.216434,109.92155 C215.329775,107.901435 216.066751,106.199917 216.282066,105.013056 C217.038298,100.880049 207.394594,109.590699 200.507985,118.966552 C193.619626,128.342406 189.48661,136.830739 189.48661,136.830739 C189.48661,136.830739 190.874785,136.044749 193.041949,134.297718 C195.301891,132.473663 198.414344,129.616793 201.79638,126.12098 C204.066825,123.773515 206.739894,120.820366 209.24141,117.520612 C209.988889,117.482101 210.720613,117.406828 211.434832,117.293043 C208.644477,121.053187 205.708828,124.484231 203.217815,127.01025 C200.478226,129.788346 197.498814,132.785257 194.90802,134.964671 C190.79426,138.425474 187.620538,140.38607 187.620538,140.38607 C187.620538,140.38607 181.581188,152.533017 184.865194,153.317256 C186.790784,153.775895 190.5982,147.90986 190.5982,147.90986 C190.5982,147.90986 195.55922,140.326552 198.552636,136.920016 C202.634887,132.26885 206.149963,129.588785 209.661539,129.529267 C211.709666,129.492505 212.921037,131.67717 212.921037,131.67717 L213.883832,130.187467 L219.816399,130.187467 C219.816399,130.187467 208.75126,148.979436 207.86899,150.392115 M224.371294,106.656806 C220.201517,109.340373 214.422997,111.768362 208.875548,111.232699 C207.473369,112.690893 205.967907,114.367903 204.458945,116.204212 C214.086894,118.10354 222.508724,112.139475 226.991847,107.057678 C229.789203,103.887464 231.168626,101.058603 231.168626,101.058603 C231.168626,101.058603 228.499058,104.001248 224.371294,106.656806 M114.430622,133.763805 C116.830607,130.476305 123.444133,118.952548 123.444133,118.952548 C123.444133,118.952548 123.335599,118.142051 122.563613,118.107041 C121.646332,118.066779 120.132118,118.374872 117.087936,122.173528 C114.043754,125.972184 111.705037,129.002356 109.987761,132.142812 C108.109436,135.575607 107.288435,137.996593 108.365014,138.653043 C108.669608,138.836849 109.129999,138.861356 109.497611,138.768578 C110.206578,138.593525 111.123859,137.889811 112.387746,136.431617 C112.977677,135.748909 113.648132,134.838632 114.430622,133.763805 M84.1691038,118.199819 C82.6128771,117.023461 78.6479128,119.7788 78.6269063,122.591906 C78.6058999,125.480285 82.2085033,126.301284 82.6723954,126.322291 C82.6723954,126.322291 83.0802703,126.432574 83.2413196,126.09122 C83.3428507,125.877655 83.8312503,124.974381 84.3791681,123.540694 C84.9270859,122.108759 85.6202982,119.299154 84.1691038,118.199819 M81.8216348,128.135843 C81.7166026,128.099081 80.2216448,127.66845 78.7616976,126.735416 C77.303501,125.802383 76.6295446,124.417711 76.5770285,124.321432 C76.526263,124.225153 76.4667447,124.298675 76.4072265,124.38095 C76.3477083,124.461475 76.0361128,124.862347 73.9179641,127.973043 C71.7998154,131.08374 68.6593535,137.452178 71.6037553,138.541009 C73.4873322,139.237721 76.64705,135.930965 78.3590743,133.742799 C79.9468106,131.71043 81.8356391,128.58748 81.9179143,128.401924 C81.9984389,128.218118 81.9249164,128.172604 81.8216348,128.135843 M127.895746,130.03167 L129.961379,130.03167 C129.961379,130.03167 119.61571,144.995223 113.763668,144.317767 C110.498918,143.941402 111.465214,139.908175 111.465214,139.908175 C111.465214,139.908175 106.870056,145.28056 102.677522,144.207483 C98.856102,143.228936 101.315605,136.874502 101.315605,136.874502 C100.881472,137.051306 92.6171912,146.376393 86.8124133,144.140963 C80.7380529,141.800501 83.8837664,133.994876 85.0426213,131.650912 C86.0194205,129.67106 87.1012518,127.743723 87.1012518,127.743723 C87.1012518,127.743723 86.168216,128.009804 85.5905391,128.142845 C85.0128622,128.275885 84.1323425,128.447437 84.1323425,128.447437 C84.1323425,128.447437 81.2579622,133.119609 79.5021744,135.453069 C77.7481372,137.786529 70.2821005,145.80747 65.8830032,144.207483 C61.4839059,142.607496 62.5674878,136.457875 65.0374943,131.565136 C69.0444715,123.633473 78.5551343,113.886506 84.2793875,115.3447 C90.06666,116.820399 85.2789437,126.210257 85.2789437,126.210257 C85.2789437,126.210257 86.432547,126.357301 89.1896414,124.477229 C93.1668595,121.765654 98.3992121,114.471184 104.076201,115.323694 C106.744018,115.722815 109.226278,118.460648 105.831989,123.654479 C104.743155,125.320986 102.920847,126.81419 101.522169,125.343743 C100.655653,124.431715 101.410134,122.758206 102.322164,121.611607 C103.610558,119.988863 105.387352,120.211181 105.387352,120.211181 C105.387352,120.211181 106.320388,118.056275 103.94316,118.100039 C102.010568,118.1368 97.1248218,122.63917 94.3677273,127.187054 C91.8347015,131.365575 88.006279,138.47974 91.855708,140.030712 C95.3900404,141.452145 102.099845,133.474967 105.210548,129.298196 C108.321251,125.121425 115.395167,115.644041 121.341739,115.255423 C123.384614,115.122383 124.606489,116.98845 124.606489,116.98845 L125.2962,115.90137 L131.228767,115.90137 C131.228767,115.90137 120.04109,134.593558 119.164072,136.007988 C118.474361,137.119576 117.564082,139.608834 120.097108,138.208408 C122.630133,136.807982 127.895746,130.03167 127.895746,130.03167 M124.669508,159.981534 C120.174131,156.821822 114.698454,155.428398 109.72343,155.627959 C104.69414,155.82927 102.437699,159.584163 102.437699,159.584163 C100.163752,155.627959 95.6788789,153.198219 88.7467558,153.257737 C77.5503266,153.389027 66.4379232,158.560101 57.6397285,158.560101 C49.1933916,158.560101 43.0385066,153.259488 43.2415687,143.83637 C43.5969276,127.321845 57.5504512,112.433564 67.9836466,105.730775 C73.9774823,101.879603 78.9997705,100.736505 82.2855269,101.102366 C84.6802603,101.370198 87.5651439,104.136039 85.7463368,108.21303 C83.0802703,114.189349 79.3901401,113.688696 79.5231808,110.835328 C79.6002044,108.981514 80.8360829,107.812158 81.760366,107.174964 C82.3520472,106.765339 83.3918657,106.649804 83.9362825,106.637551 C84.4614433,106.191165 84.8658171,102.924671 80.5682509,104.002999 C76.2724352,105.081327 71.1048525,109.301861 66.1718417,114.740766 C61.2405814,120.179672 53.5714825,130.49381 51.6756519,141.306851 C50.7951322,146.325628 51.388564,155.46691 63.2677022,155.361878 C73.3402872,155.272601 88.2128422,148.636331 101.870525,148.755367 C107.172899,148.800881 111.787312,150.227565 115.384664,152.450742 C118.9295,154.640658 123.169298,157.814374 124.669508,159.981534" id="Fill-6" fill="#FFFFFF"></path>
                </g>
                <text id="®" font-family="TCCC-UnityHeadline-Bold, TCCC-UnityHeadline" font-size="8.4617" font-weight="bold" fill="#FFFFFF">
                    <tspan x="214.684364" y="158">®</tspan>
                </text>
            </g>
        </g>
    </g>
</svg>